<svg viewBox="0 0 48 48" xmlns="http://www.w3.org/2000/svg" role="img" aria-label="Support assistant bot">
  <rect width="48" height="48" rx="12" fill="#ffd34f"/>
  <g transform="translate(12 12) scale(1)">
    <path d="M4.5 12.5v-.8a7.5 7.5 0 0 1 15 0v.8" fill="none" stroke="#08111d" stroke-width="1.8" stroke-linecap="round"/>
    <rect x="2.7" y="11.8" width="3.3" height="5" rx="1.4" fill="#08111d"/>
    <rect x="18" y="11.8" width="3.3" height="5" rx="1.4" fill="#08111d"/>
    <path d="M19.65 16.8v.5a2.2 2.2 0 0 1-2.2 2.2H13.2" fill="none" stroke="#08111d" stroke-width="1.6" stroke-linecap="round"/>
    <circle cx="12.3" cy="19.5" r="1.15" fill="#08111d"/>
    <circle cx="12" cy="3.6" r="1" fill="#08111d"/>
    <path d="M12 4.6v1.6" stroke="#08111d" stroke-width="1.6" stroke-linecap="round"/>
    <rect x="5.7" y="6.2" width="12.6" height="9.4" rx="3" fill="#08111d"/>
    <circle cx="9.7" cy="10.2" r="1.35" fill="#ffd34f"/>
    <circle cx="14.3" cy="10.2" r="1.35" fill="#ffd34f"/>
    <path d="M9.5 12.5c1 1 4 1 5 0" fill="none" stroke="#ffd34f" stroke-width="1.4" stroke-linecap="round"/>
  </g>
</svg>
